<svg width="108" height="32" viewBox="0 0 108 32" fill="none" xmlns="http://www.w3.org/2000/svg">
<g clip-path="url(#clip0_0_5)">
<path d="M16.9529 15.0184C16.9245 11.5274 19.5335 9.82911 19.6528 9.75004C18.1752 7.36391 15.885 7.03789 15.0802 7.01189C13.1567 6.78769 11.2909 8.28673 10.311 8.28673C9.31161 8.28673 7.80271 7.03356 6.17648 7.07038C4.08378 7.10613 2.12604 8.44812 1.05231 10.5321C-1.1636 14.7812 0.489041 21.0254 2.61205 24.46C3.67404 26.1432 4.91499 28.0202 6.53927 27.9541C8.12835 27.8827 8.72194 26.8331 10.6396 26.8331C12.5396 26.8331 13.097 27.9541 14.7536 27.9119C16.459 27.8827 17.5328 26.2222 18.5576 24.525C19.7849 22.5981 20.2777 20.6983 20.2973 20.6008C20.2582 20.5856 16.9861 19.2014 16.9529 15.0184Z" fill="white"/>
<path d="M13.9102 5.06482C14.7705 3.89783 15.3591 2.31016 15.1957 0.698996C13.9505 0.758787 12.3934 1.63323 11.4967 2.77461C10.7034 3.78038 9.99467 5.42891 10.1777 6.97921C11.5764 7.09239 13.0125 6.21367 13.9102 5.06482Z" fill="white"/>
<path d="M40.0526 27.3532H37.8119L36.5844 23.1833H32.3181L31.1489 27.3532H28.9673L33.1952 13.1571H35.806L40.0526 27.3532ZM36.2144 21.4339L35.1044 17.727C34.987 17.3483 34.766 16.4565 34.4424 15.0527H34.4029C34.2727 15.6565 34.0645 16.5482 33.7793 17.727L32.6881 21.4339H36.2144Z" fill="white"/>
<path d="M50.904 22.1091C50.904 23.85 50.4669 25.2261 49.5917 26.2363C48.8083 27.1356 47.8345 27.5847 46.6732 27.5847C45.4191 27.5847 44.5173 27.1014 43.9697 26.1328V31.5038H41.8661V20.4813C41.8661 19.3879 41.8395 18.2667 41.7881 17.1168H43.6382L43.7556 18.7393H43.795C44.4966 17.5168 45.5612 16.9056 46.9899 16.9056C48.1068 16.9056 49.0392 17.3824 49.7851 18.3372C50.5301 19.294 50.904 20.5506 50.904 22.1091ZM48.761 22.1923C48.761 21.196 48.5538 20.3746 48.1374 19.7271C47.6825 19.054 47.0718 18.7169 46.3061 18.7169C45.7871 18.7169 45.3155 18.9047 44.8942 19.2748C44.4719 19.6482 44.1956 20.1357 44.0664 20.7394C44.0013 21.021 43.9687 21.2504 43.9687 21.4317V23.1396C43.9687 23.8831 44.1798 24.5114 44.6021 25.0256C45.0244 25.5376 45.573 25.7947 46.2479 25.7947C47.0402 25.7947 47.6569 25.4629 48.0979 24.8047C48.5399 24.1444 48.761 23.274 48.761 22.1923Z" fill="white"/>
<path d="M61.7939 22.1091C61.7939 23.85 61.3568 25.2261 60.4816 26.2363C59.6972 27.1356 58.7244 27.5847 57.5621 27.5847C56.308 27.5847 55.4062 27.1014 54.8586 26.1328V31.5038H52.755V20.4813C52.755 19.3879 52.7284 18.2667 52.6771 17.1168H54.5271L54.6445 18.7393H54.684C55.3845 17.5168 56.4491 16.9056 57.8788 16.9056C58.9947 16.9056 59.9271 17.3824 60.675 18.3372C61.419 19.294 61.7939 20.5506 61.7939 22.1091ZM59.6499 22.1923C59.6499 21.196 59.4417 20.3746 59.0253 19.7271C58.5705 19.054 57.9617 18.7169 57.196 18.7169C56.677 18.7169 56.2054 18.9047 55.7821 19.2748C55.3598 19.6482 55.0845 20.1357 54.9553 20.7394C54.8912 21.021 54.8566 21.2504 54.8566 21.4317V23.1396C54.8566 23.8831 55.0688 24.5114 55.4891 25.0256C55.9114 25.5365 56.46 25.7947 57.1368 25.7947C57.9301 25.7947 58.5468 25.4629 58.9868 24.8047C59.4289 24.1444 59.6499 23.274 59.6499 22.1923Z" fill="white"/>
<path d="M73.9695 23.3711C73.9695 24.5797 73.5788 25.5621 72.8022 26.3206C71.9478 27.1484 70.7549 27.5633 69.2255 27.5633C67.8126 27.5633 66.6799 27.2689 65.8255 26.679L66.3119 24.7834C67.2344 25.3744 68.2478 25.6688 69.3509 25.6688C70.1441 25.6688 70.7608 25.4747 71.2009 25.0896C71.6419 24.7034 71.8649 24.1871 71.8649 23.5428C71.8649 22.9657 71.6804 22.4825 71.3183 22.0889C70.9542 21.6963 70.3523 21.3304 69.5067 20.9944C67.2078 20.0674 66.0573 18.7116 66.0573 16.928C66.0573 15.7631 66.4638 14.8095 67.2749 14.0638C68.0859 13.3192 69.1614 12.947 70.4993 12.947C71.6942 12.947 72.6898 13.172 73.4801 13.6211L72.9522 15.4751C72.2083 15.0399 71.3686 14.8223 70.4293 14.8223C69.6873 14.8223 69.1052 15.0196 68.6888 15.4122C68.3385 15.7631 68.1609 16.1909 68.1609 16.6987C68.1609 17.2587 68.3632 17.7238 68.7658 18.0886C69.115 18.4246 69.7524 18.7905 70.674 19.1831C71.8047 19.6759 72.6355 20.2498 73.1673 20.909C73.7031 21.5683 73.9695 22.3907 73.9695 23.3711Z" fill="white"/>
<path d="M80.9423 18.8236H78.6236V23.7935C78.6236 25.0576 79.0321 25.688 79.851 25.688C80.227 25.688 80.5387 25.6539 80.7854 25.5824L80.8436 27.3094C80.4292 27.4769 79.8836 27.5612 79.2077 27.5612C78.3769 27.5612 77.7277 27.287 77.259 26.7387C76.7923 26.1904 76.5575 25.272 76.5575 23.9791V18.8193H75.1762V17.1125H76.5575V15.2383L78.6236 14.5641V17.1125H80.9423V18.8236Z" fill="white"/>
<path d="M91.3833 22.1507C91.3833 23.7241 90.9669 25.016 90.1361 26.0262C89.2668 27.0662 88.1105 27.5847 86.6689 27.5847C85.2777 27.5847 84.1717 27.0865 83.3468 26.0912C82.522 25.0938 82.1095 23.8372 82.1095 22.3214C82.1095 20.7352 82.5358 19.4359 83.3853 18.4257C84.2368 17.4144 85.3833 16.9088 86.8248 16.9088C88.2141 16.9088 89.33 17.408 90.1746 18.4044C90.9817 19.3708 91.3833 20.6189 91.3833 22.1507ZM89.2027 22.203C89.2027 21.2653 89.0152 20.461 88.6393 19.7879C88.1983 18.9751 87.5668 18.5686 86.7489 18.5686C85.9062 18.5686 85.26 18.9751 84.8199 19.7879C84.443 20.461 84.2555 21.2792 84.2555 22.2457C84.2555 23.1844 84.443 23.9908 84.8199 24.6618C85.2748 25.4747 85.9092 25.8811 86.7311 25.8811C87.5352 25.8811 88.1657 25.4661 88.6216 24.6415C89.0083 23.9524 89.2027 23.1428 89.2027 22.203Z" fill="white"/>
<path d="M98.2239 19.1169C98.0157 19.0753 97.7927 19.054 97.5608 19.054C96.8208 19.054 96.2486 19.3548 95.846 19.9607C95.4967 20.4941 95.3211 21.1683 95.3211 21.9822V27.3532H93.2175V20.3405C93.2175 19.1617 93.1968 18.0865 93.1563 17.1179H94.9886L95.0655 19.0764H95.1237C95.3467 18.4033 95.696 17.8603 96.1755 17.4539C96.6442 17.088 97.1504 16.9056 97.696 16.9056C97.8904 16.9056 98.066 16.9205 98.2219 16.9472L98.2239 19.1169Z" fill="white"/>
<path d="M107.632 21.7507C107.632 22.1582 107.607 22.5017 107.555 22.7822H101.244C101.268 23.7935 101.574 24.5679 102.16 25.1013C102.692 25.5771 103.379 25.816 104.224 25.816C105.158 25.816 106.011 25.656 106.777 25.3328L107.107 26.9105C106.211 27.3329 105.153 27.5431 103.933 27.5431C102.465 27.5431 101.312 27.0758 100.473 26.1435C99.6368 25.2101 99.2174 23.9556 99.2174 22.3843C99.2174 20.8418 99.6072 19.5564 100.388 18.5313C101.205 17.4368 102.309 16.8896 103.698 16.8896C105.062 16.8896 106.096 17.4368 106.797 18.5313C107.353 19.3986 107.632 20.4738 107.632 21.7507ZM105.626 21.1608C105.641 20.4856 105.503 19.9042 105.217 19.4124C104.853 18.7788 104.293 18.463 103.542 18.463C102.854 18.463 102.294 18.7713 101.868 19.39C101.517 19.8818 101.309 20.4727 101.245 21.1587L105.626 21.1608Z" fill="white"/>
<path d="M35.4765 7.79241H34.3755L33.7732 5.77855H31.6786L31.1039 7.79241H30.0324L32.1083 0.935222H33.3898L35.4765 7.79241ZM33.5918 4.93359L33.0467 3.14303C32.9896 2.95957 32.8841 2.53289 32.7215 1.85147H32.7017C32.6347 2.14605 32.5391 2.57378 32.3952 3.14303L31.8599 4.93359H33.5918Z" fill="white"/>
<path d="M40.6673 2.84844L38.9068 7.79241H37.9024L36.1991 2.84844H37.309L38.1035 5.463C38.2375 5.90016 38.3519 6.3174 38.4376 6.71367H38.4662C38.5431 6.35828 38.6575 5.94105 38.8004 5.463L39.585 2.84844H40.6673Z" fill="white"/>
<path d="M44.4151 7.79241L44.3382 7.22317H44.3096C43.9942 7.68129 43.5348 7.90459 42.9513 7.90459C42.1193 7.90459 41.5259 7.28397 41.5259 6.44949C41.5259 5.22922 42.5205 4.59812 44.2426 4.59812V4.50692C44.2426 3.8559 43.9173 3.52986 43.2766 3.52986C42.8172 3.52986 42.4151 3.65252 42.0622 3.89678L41.8522 3.17448C42.283 2.88933 42.8182 2.74675 43.4501 2.74675C44.6645 2.74675 45.2776 3.42817 45.2776 4.79206V6.61303C45.2776 7.11204 45.2973 7.49888 45.3446 7.79346L44.4151 7.79241ZM44.2712 5.32986C43.1228 5.32986 42.5491 5.62549 42.5491 6.32683C42.5491 6.84576 42.8458 7.09946 43.2569 7.09946C43.7832 7.09946 44.2712 6.67279 44.2712 6.09305V5.32986Z" fill="white"/>
<path d="M47.5783 2.03388C47.2342 2.03388 46.9661 1.74873 46.9661 1.37238C46.9661 0.996025 47.2431 0.72136 47.598 0.72136C47.9518 0.72136 48.2387 0.996025 48.2288 1.37238C48.2288 1.7697 47.9617 2.03388 47.5783 2.03388ZM48.1145 7.79241H47.0815V2.84844H48.1145V7.79241Z" fill="white"/>
<path d="M50.9829 7.79241H49.9499V0.579834H50.9829V7.79241Z" fill="white"/>
<path d="M55.3733 7.79241L55.2965 7.22317H55.2679C54.9524 7.68129 54.4931 7.90459 53.9095 7.90459C53.0776 7.90459 52.4842 7.28397 52.4842 6.44949C52.4842 5.22922 53.4788 4.59812 55.2008 4.59812V4.50692C55.2008 3.8559 54.8756 3.52986 54.2348 3.52986C53.7755 3.52986 53.3733 3.65252 53.0204 3.89678L52.8095 3.17343C53.2402 2.88828 53.7755 2.7457 54.4073 2.7457C55.6217 2.7457 56.2349 3.42713 56.2349 4.79102V6.61198C56.2349 7.11099 56.2556 7.49783 56.3009 7.79241H55.3733ZM55.2294 5.32986C54.0811 5.32986 53.5074 5.62549 53.5074 6.32683C53.5074 6.84576 53.8041 7.09946 54.2151 7.09946C54.7415 7.09946 55.2294 6.67279 55.2294 6.09305V5.32986Z" fill="white"/>
<path d="M60.4202 7.90459C59.7608 7.90459 59.2738 7.60895 58.9584 7.02922H58.9377L58.8785 7.79241H57.9983C58.0269 7.39614 58.0367 6.94745 58.0367 6.45997V0.579834H59.0708V3.5718H59.0905C59.397 3.02247 59.8928 2.7478 60.573 2.7478C61.6928 2.7478 62.4774 3.76574 62.4774 5.25019C62.4774 6.78496 61.606 7.90459 60.4202 7.90459ZM60.2102 3.61059C59.6159 3.61059 59.0717 4.15992 59.0717 4.92311V5.78799C59.0717 6.46941 59.5607 7.02922 60.1925 7.02922C60.9663 7.02922 61.4266 6.35828 61.4266 5.29003C61.4256 4.29305 60.9466 3.61059 60.2102 3.61059Z" fill="white"/>
<path d="M65.0373 7.79241H64.0052V0.579834H65.0373V7.79241Z" fill="white"/>
<path d="M70.6609 5.58461H67.5598C67.5805 6.52078 68.162 7.04914 69.0236 7.04914C69.4829 7.04914 69.9038 6.96737 70.2764 6.81536L70.4371 7.57855C69.9975 7.78193 69.4809 7.88362 68.8787 7.88362C67.4237 7.88362 66.5632 6.90657 66.5632 5.39171C66.5632 3.87582 67.4444 2.73627 68.7623 2.73627C69.9482 2.73627 70.6954 3.67244 70.6954 5.08665C70.6993 5.27954 70.6904 5.45252 70.6609 5.58461ZM69.7136 4.8015C69.7136 4.03831 69.3498 3.49946 68.6894 3.49946C68.096 3.49946 67.6288 4.04879 67.5598 4.8015H69.7136Z" fill="white"/>
<path d="M76.9221 7.90459C75.5638 7.90459 74.6836 6.82584 74.6836 5.36131C74.6836 3.83493 75.5825 2.74675 77 2.74675C78.3376 2.74675 79.2386 3.77413 79.2386 5.28059C79.2386 6.82584 78.31 7.90459 76.9221 7.90459ZM76.9616 3.54978C76.2154 3.54978 75.7373 4.29201 75.7373 5.32986C75.7373 6.3478 76.2252 7.09003 76.9517 7.09003C77.6782 7.09003 78.1651 6.29643 78.1651 5.3089C78.1661 4.30249 77.688 3.54978 76.9616 3.54978Z" fill="white"/>
<path d="M84.7922 7.79241H83.7601V4.95351C83.7601 4.07919 83.4447 3.64099 82.8227 3.64099C82.2106 3.64099 81.7887 4.2008 81.7887 4.85182V7.79241H80.7566V4.2616C80.7566 3.82445 80.7458 3.35584 80.7182 2.84739H81.627L81.6753 3.61059H81.7039C81.9799 3.08222 82.5457 2.7457 83.1766 2.7457C84.1514 2.7457 84.7922 3.5393 84.7922 4.83085V7.79241Z" fill="white"/>
<path d="M91.5513 3.67244H90.4147V6.07314C90.4147 6.68432 90.6148 6.98939 91.016 6.98939C91.1984 6.98939 91.3521 6.96842 91.4754 6.93802L91.5039 7.7725C91.3029 7.85427 91.0337 7.89515 90.7016 7.89515C89.8873 7.89515 89.4014 7.41711 89.4014 6.16539V3.67244H88.7232V2.84844H89.4014V1.94268L90.4147 1.61664V2.84739H91.5513V3.67244Z" fill="white"/>
<path d="M97.022 7.79241H95.9879V4.97448C95.9879 4.08968 95.6725 3.64204 95.0505 3.64204C94.5153 3.64204 94.0185 4.02887 94.0185 4.81198V7.79241H92.9845V0.579834H94.0185V3.54978H94.0382C94.3635 3.01093 94.8327 2.7457 95.435 2.7457C96.4197 2.7457 97.022 3.55922 97.022 4.85182V7.79241Z" fill="white"/>
<path d="M102.301 5.58461H99.2004C99.2201 6.52078 99.8017 7.04914 100.663 7.04914C101.124 7.04914 101.543 6.96737 101.916 6.81536L102.078 7.57855C101.638 7.78193 101.121 7.88362 100.518 7.88362C99.0634 7.88362 98.2029 6.90657 98.2029 5.39171C98.2029 3.87582 99.0841 2.73627 100.402 2.73627C101.588 2.73627 102.335 3.67244 102.335 5.08665C102.339 5.27954 102.329 5.45252 102.301 5.58461ZM101.353 4.8015C101.353 4.03831 100.99 3.49946 100.33 3.49946C99.7357 3.49946 99.2684 4.04879 99.2004 4.8015H101.353Z" fill="white"/>
</g>
<defs>
<clipPath id="clip0_0_5">
<rect width="108" height="32" fill="white"/>
</clipPath>
</defs>
</svg>
